<svg width="93" height="93" viewBox="0 0 93 93" fill="none" xmlns="http://www.w3.org/2000/svg">
<circle cx="46.0518" cy="46.9483" r="46.0518" fill="#F5F5F5"/>
<path d="M59.1399 32.7474C58.9342 24.4433 53.7311 17.7914 47.162 17.3251C46.985 17.3108 46.8031 17.3012 46.6213 17.2988C46.5448 17.2988 46.1572 17.3156 46.1572 17.3156C45.8439 17.3347 45.5377 17.3658 45.2338 17.4184C38.9829 18.3724 34.2152 25.041 34.2248 33.0845L34.4473 54.5346C34.4688 56.7535 35.5596 58.8528 37.3586 60.1488L46.1668 66.4851L46.1907 67.8838L46.3414 75.7671C46.3534 76.2931 46.784 76.7139 47.3103 76.7139H47.3294C47.8629 76.7044 48.2887 76.2644 48.2768 75.7312L48.1021 66.4492V66.4348L56.7118 59.8977C58.4772 58.5539 59.5107 56.4259 59.4772 54.2118L59.1399 32.7498V32.7474ZM38.4901 58.5802C37.1864 57.6382 36.3969 56.1199 36.3802 54.5155L36.1577 33.0726C36.1481 26.1098 40.0738 20.3235 45.2673 19.3671L46.119 64.0677L38.4877 58.5802H38.4901ZM55.5396 58.3531L48.0543 64.039L47.2026 19.2667C52.5995 19.7736 57.0276 25.6866 57.2046 32.788L57.5419 54.2381C57.5682 55.8425 56.8194 57.3823 55.5396 58.3555V58.3531Z" fill="#1E1E1C"/>
</svg>
