<svg width="276" height="787" viewBox="0 0 276 787" fill="none" xmlns="http://www.w3.org/2000/svg">
<path d="M21.0768 761.521V780.526H17.4725V777.681C15.9054 779.691 13.5808 780.918 11.0474 780.918C5.98038 780.918 2.06262 776.819 2.06262 771.024C2.06262 765.228 5.98038 761.13 11.0474 761.13C13.7114 761.13 16.0621 762.461 17.6553 764.576V761.495H21.0768V761.521ZM17.577 771.024C17.577 767.212 15.0696 764.498 11.6481 764.498C8.22657 764.498 5.79755 767.239 5.79755 771.024C5.79755 774.809 8.2788 777.55 11.6481 777.55C15.0174 777.55 17.577 774.809 17.577 771.024Z" fill="#373737"/>
<path d="M45.524 770.006V780.526H41.9196V770.084C41.9196 766.612 39.5951 764.602 36.7221 764.602C33.3789 764.602 31.2894 767.265 31.2894 770.371V780.526H27.6851V761.522H31.1066V764.576C32.4648 762.514 34.7893 761.156 37.375 761.156C41.8935 761.156 45.5501 764.002 45.5501 770.006H45.524Z" fill="#373737"/>
<path d="M69.0309 753.742V780.552H65.4266V777.707C63.8595 779.717 61.5349 780.944 59.0014 780.944C53.9345 780.944 50.0167 776.845 50.0167 771.05C50.0167 765.255 53.9345 761.156 59.0014 761.156C61.6655 761.156 64.0162 762.488 65.6094 764.602V753.742H69.0309ZM65.531 771.05C65.531 767.239 63.0237 764.524 59.6022 764.524C56.1807 764.524 53.7516 767.265 53.7516 771.05C53.7516 774.835 56.2329 777.576 59.6022 777.576C62.9714 777.576 65.531 774.835 65.531 771.05Z" fill="#373737"/>
<path d="M91.4662 764.941V774.965C91.4662 776.479 92.0409 777.471 94.0781 777.471C94.9139 777.471 95.593 777.419 96.4026 777.236V780.552C95.9586 780.708 94.9661 780.891 93.8953 780.891C89.7424 780.891 87.8358 778.829 87.8358 774.965V764.941H84.0225V761.521H87.8358V756.587H91.4401V761.521H96.7683V764.941H91.4401H91.4662Z" fill="#373737"/>
<path d="M119.36 770.006V780.526H115.756V770.084C115.756 766.612 113.431 764.602 110.558 764.602C107.45 764.602 105.125 767.291 105.125 770.449V780.526H101.521V753.716H104.943V764.054C106.379 762.304 108.625 761.13 110.95 761.13C115.625 761.13 119.386 763.975 119.386 769.98L119.36 770.006Z" fill="#373737"/>
<path d="M143.181 772.512H127.588C128.11 775.488 130.644 777.577 133.595 777.577C136.259 777.577 137.879 776.506 138.845 774.888H142.58C141.352 778.412 137.774 780.944 133.595 780.944C127.928 780.944 123.827 776.767 123.827 771.05C123.827 765.333 127.928 761.156 133.569 761.156C139.811 761.156 143.677 765.594 143.181 772.512ZM127.614 769.353H139.289C138.976 766.273 136.599 764.341 133.465 764.341C130.33 764.341 128.11 766.43 127.614 769.353Z" fill="#373737"/>
<path d="M178.231 771.024C178.231 776.793 174.313 780.918 169.246 780.918C166.686 780.918 164.388 779.691 162.821 777.681V787.001H159.216V761.522H162.638V764.602C164.231 762.462 166.582 761.156 169.246 761.156C174.313 761.156 178.231 765.255 178.231 771.05V771.024ZM174.496 771.024C174.496 767.213 172.014 764.498 168.645 764.498C165.276 764.498 162.716 767.239 162.716 771.024C162.716 774.809 165.224 777.55 168.645 777.55C172.067 777.55 174.496 774.809 174.496 771.024Z" fill="#373737"/>
<path d="M186.693 753.742V780.552H183.089V753.742H186.693Z" fill="#373737"/>
<path d="M210.592 761.521V780.526H206.987V777.681C205.42 779.691 203.096 780.918 200.562 780.918C195.495 780.918 191.578 776.819 191.578 771.024C191.578 765.228 195.495 761.13 200.562 761.13C203.226 761.13 205.577 762.461 207.17 764.576V761.495H210.592V761.521ZM207.092 771.024C207.092 767.212 204.585 764.498 201.163 764.498C197.742 764.498 195.313 767.239 195.313 771.024C195.313 774.809 197.794 777.55 201.163 777.55C204.532 777.55 207.092 774.809 207.092 771.024Z" fill="#373737"/>
<path d="M235.013 770.006V780.526H231.409V770.084C231.409 766.612 229.084 764.602 226.211 764.602C222.868 764.602 220.779 767.265 220.779 770.371V780.526H217.174V761.522H220.596V764.576C221.954 762.514 224.279 761.156 226.864 761.156C231.383 761.156 235.039 764.002 235.039 770.006H235.013Z" fill="#373737"/>
<path d="M258.858 772.512H243.265C243.788 775.488 246.295 777.577 249.273 777.577C251.937 777.577 253.582 776.506 254.522 774.888H258.257C257.03 778.412 253.478 780.944 249.273 780.944C243.605 780.944 239.504 776.767 239.504 771.05C239.504 765.333 243.605 761.156 249.247 761.156C255.489 761.156 259.354 765.594 258.858 772.512ZM243.292 769.353H254.966C254.653 766.273 252.276 764.341 249.142 764.341C246.008 764.341 243.788 766.43 243.292 769.353Z" fill="#373737"/>
<path d="M268.314 764.941V774.965C268.314 776.479 268.889 777.471 270.926 777.471C271.762 777.471 272.441 777.419 273.25 777.236V780.552C272.806 780.708 271.814 780.891 270.743 780.891C266.59 780.891 264.684 778.829 264.684 774.965V764.941H260.87V761.521H264.684V756.587H268.288V761.521H273.616V764.941H268.288H268.314Z" fill="#373737"/>
<path d="M52.6278 651.67C86.8429 651.67 90.4211 675.269 90.4211 702.471H23.9759C25.9348 721.528 35.5463 735.364 52.6539 735.364C67.4891 735.364 80.8356 730.978 91.2569 721.841L92.5628 723.46C89.7943 725.731 77.9104 738.105 52.6539 738.105C21.8603 738.105 7.20787 719.7 7.20787 694.796C7.20787 669.891 23.3229 651.644 52.6539 651.644L52.6278 651.67ZM23.7931 699.86H87.3391C87.3391 675.269 82.6117 654.254 52.6278 654.254C28.8339 654.254 22.4871 680.803 23.7931 699.86Z" fill="#373737"/>
<path d="M115.365 654.124L145.506 731.631L171.729 654.124H174.654L146.968 735.547H130.357L98.7538 654.124H115.365Z" fill="#373737"/>
<path d="M182.49 705.891C182.49 693.517 189.176 682.605 203.672 678.689L188.183 670.23C194.53 659.318 203.672 651.826 232.167 651.826C252.853 651.826 269.464 656.212 269.464 684.38V735.52H254.159V694.639C250.58 716.463 243.894 737.948 217.018 737.948C203.828 737.948 182.49 735.833 182.49 705.864V705.891ZM198.448 707.509C198.448 728.837 207.093 735.52 216.861 735.52C231.357 735.52 242.588 729.646 248.621 707.352C251.077 698.398 253.009 688.791 253.662 679.681H216.835C207.067 679.681 198.422 687.173 198.422 707.535L198.448 707.509ZM216.861 676.887H254.002C254.002 660.441 252.696 653.941 232.167 653.941C214.406 653.941 207.903 664.696 206.44 677.879C207.903 677.383 212.63 676.913 216.861 676.913V676.887Z" fill="#373737"/>
<path d="M272.023 168.667C269.777 78.003 212.97 5.37772 141.248 0.28716C139.316 0.130527 137.331 0.0261054 135.346 0C134.51 0 130.279 0.182738 130.279 0.182738C126.857 0.391581 123.514 0.730952 120.197 1.30527C51.9497 11.7213 -0.104317 84.5294 0.000156982 172.348L2.42917 406.54C2.66423 430.766 14.5742 453.686 34.2153 467.835L130.383 537.015L130.644 552.286L132.29 638.356C132.42 644.099 137.122 648.694 142.868 648.694H143.077C148.901 648.589 153.55 643.786 153.42 637.965L151.513 536.623V536.467L245.513 465.094C264.788 450.423 276.072 427.189 275.706 403.016L272.023 168.693V168.667ZM46.5693 450.71C32.3347 440.425 23.7157 423.848 23.5328 406.331L21.1038 172.218C20.9993 96.1985 63.8596 33.0234 120.563 22.5812L129.861 510.622L46.5431 450.71H46.5693ZM232.715 448.23L150.991 510.309L141.692 21.4848C200.616 27.0191 248.961 91.5779 250.893 169.111L254.576 403.303C254.863 420.82 246.688 437.632 232.715 448.256V448.23Z" fill="#373737"/>
</svg>
