<svg width="93" height="93" viewBox="0 0 93 93" fill="none" xmlns="http://www.w3.org/2000/svg">
<circle cx="46.0518" cy="46.9483" r="46.0518" fill="#BCCACA"/>
<path d="M59.1408 32.7474C58.9351 24.4433 53.732 17.7914 47.1629 17.3251C46.9859 17.3108 46.8041 17.3012 46.6223 17.2988C46.5457 17.2988 46.1582 17.3156 46.1582 17.3156C45.8448 17.3347 45.5386 17.3658 45.2348 17.4184C38.9839 18.3724 34.2162 25.041 34.2257 33.0845L34.4482 54.5346C34.4697 56.7535 35.5606 58.8528 37.3595 60.1488L46.1678 66.4851L46.1917 67.8838L46.3424 75.7671C46.3544 76.2931 46.785 76.7139 47.3112 76.7139H47.3304C47.8638 76.7044 48.2897 76.2644 48.2777 75.7312L48.1031 66.4492V66.4348L56.7127 59.8977C58.4782 58.5539 59.5116 56.4259 59.4781 54.2118L59.1408 32.7498V32.7474ZM38.4911 58.5802C37.1873 57.6382 36.3979 56.1199 36.3811 54.5155L36.1586 33.0726C36.1491 26.1098 40.0747 20.3235 45.2683 19.3671L46.1199 64.0677L38.4887 58.5802H38.4911ZM55.5405 58.3531L48.0552 64.039L47.2036 19.2667C52.6005 19.7736 57.0285 25.6866 57.2055 32.788L57.5428 54.2381C57.5691 55.8425 56.8204 57.3823 55.5405 58.3555V58.3531Z" fill="#F5F5F5"/>
</svg>
